# xmcd
#
# Track frame offsets:
#	150
#	18386
#	36595
#	57416
#	74980
#	87466
#	103210
#	120311
#	133877
#	149003
#	167239
#	185448
#	206269
#	223833
#	236319
#	252063
#	269164
#	282730
#
# Disc length: 3971 seconds
#
# Revision: 1
# Processed by: cddbd v1.5.2PL0 Copyright (c) Steve Scherf et al.
# Submitted via: audiograbber 1.83.01
#
DISCID=2e0f8112
DTITLE=Various Artist - NSC3074
DYEAR=1900
DGENRE=Karaoke
TTITLE0=George Strait - Seashore Of Old Mexico
TTITLE1=Carrie Underwood - Don't Forget To Remember Me
TTITLE2=Trisha Yearwood - Love Will Always Win
TTITLE3=Phil Vassar - Last Day Of My Life
TTITLE4=Billy Curington - Why Why Why
TTITLE5=Big and Rich - Never Mind Me
TTITLE6=Terri Clark - Damm Right
TTITLE7=Martina McBride - I Still Miss Someone
TTITLE8=Kenny Rogers - I Can't Unlove You
TTITLE9=George Strait - Seashore Of Old Mexico (Vocal)
TTITLE10=Carrie Underwood - Don't Forget To Remember Me (Vocal)
TTITLE11=Trisha Yearwood and Garth Brooks - Love Will Always Win (Vocal)
TTITLE12=Phil Vassar - Last Day Of My Life (Vocal)
TTITLE13=Billy Currington - Why Why Why (Vocal)
TTITLE14=Big and Rich - Never Mind Me (Vocal)
TTITLE15=Terri Clark - Damm Right (Vocal)
TTITLE16=Martina McBride - I Still Miss Someone (Vocal)
TTITLE17=Kenny Rogers - I Can't Unlove You (Vocal)
EXTD=
EXTT0=
EXTT1=
EXTT2=
EXTT3=
EXTT4=
EXTT5=
EXTT6=
EXTT7=
EXTT8=
EXTT9=
EXTT10=
EXTT11=
EXTT12=
EXTT13=
EXTT14=
EXTT15=
EXTT16=
EXTT17=
PLAYORDER=
